<?xml version="1.0" encoding="utf-8"?>
<!-- Generator: Adobe Illustrator 21.0.0, SVG Export Plug-In . SVG Version: 6.00 Build 0)  -->
<svg version="1.1" id="Layer_1" xmlns="http://www.w3.org/2000/svg" xmlns:xlink="http://www.w3.org/1999/xlink" x="0px" y="0px"
	 viewBox="0 0 159 88" style="enable-background:new 0 0 159 88;" xml:space="preserve">
<g>
	<g>
		<path d="M46.3,50.6c-4.8,3.8-8.2,8.2-12.8,11.3c-4.9,3.3-10,5.5-15.9,3c-4.5-1.8-6.7-7-5.1-11.6c1.4-4,5.7-6.2,10.1-5.2
			c3.3,0.8,4.9,2.8,4.1,6.2c-0.4,1.8-1.7,2.9-3.5,2.9c-1.8,0-2.7-1.2-2.9-2.9c-0.1-1.4,0.5-3.4-2-3.1c-1.9,0.2-2.8,1.6-3.2,3.4
			c-1.2,5,3,9.5,8.6,8.8c1.9-0.2,3.9-1,5.6-1.9C35.7,58.1,40,52.3,45.6,47c-10.2-0.1-13.7-2.4-14.2-9c-0.3-3.7,0.7-7,4-9.2
			c3.2-2.2,6.5-2.4,9.9-0.5c2.4,1.3,3.8,3.4,3.5,6.1c-0.3,2.3-1.7,3.7-4.1,3.2c-2.4-0.5-2.7-2-1.5-4.2c1.8-3.5-0.9-3.5-3-3.4
			c-3.9,0.1-6.5,3.9-5.9,8.3c0.6,4.2,4.4,6.9,8.8,5.9c5-1.1,10-2.8,15-3.8c8-1.7,14.9,0.4,19.9,7.1c1.8,2.4,2.7,2.6,4.6,0
			c4.4-6.2,10.6-8.1,18-7.1c5.6,0.8,11.1,2.4,16.5,3.8c4.2,1.1,7.4-0.6,8.7-4.6c1.2-3.6,0.4-7-3.4-9c-1.5-0.8-3.2-1.1-4.8,0
			c-1.6,1.1-0.4,2.3,0,3.6c0.6,1.9,0,3.4-2,3.9c-1.9,0.5-3.3-0.7-3.9-2.4c-1.2-3.4,0.4-5.9,3.3-7.5c3.6-2,7.2-1.5,10.3,1
			c3.3,2.6,4.4,6.2,3.3,10.3c-1.1,4-3.5,6.9-7.9,7.2c-1.9,0.2-3.9-0.2-7.5-0.4c7.6,7,13.1,14.6,22.5,17c3.1,0.8,6-0.4,8.1-2.8
			c1.7-2,1.7-4.3,1-6.6c-0.5-1.5-1.6-2.6-3.2-2.7c-1.3-0.1-1.8,0.7-1.7,1.9c0.1,2.3-0.5,4.1-3.1,4.1c-1.8,0-3-1.3-3.4-3.2
			c-0.4-2.4,0.3-4.4,2.6-5.4c3.1-1.4,6.3-1.2,9,0.8c2.8,2.1,3.7,5.1,2.9,8.5c-1.4,6.5-8.5,9.8-15.5,7c-5.7-2.3-10.1-6.4-14.3-10.7
			c-1.1-1.1-2-2.7-4.2-3.2c0.2,2.9,0.5,5.7-0.7,8.3c-1.7,3.6-4.2,6.1-8.3,6.3c-3.5,0.2-6.5-1.3-8.4-4.5c-2.5-4.3,0.7-10.2,5.6-10.2
			c2,0,3.6,0.7,4.3,2.7c0.5,1.4,0.3,2.7-1,3.5c-1.9,1.2-3,0-4.1-1.4c-1.7-2.2-2.6-0.6-2.9,1c-0.6,3.1,0.8,5.2,3.7,6.3
			c3.2,1.2,7.3-0.8,8.6-4.1c2.2-5.7-0.8-12.7-6.5-14.9c-9.7-3.8-19.9,1.2-21.6,10.4c-0.6,2.9-0.1,5.7,2,7.9c1.2,1.4,2.9,1.6,4.6,0.9
			c1-0.4,1.7-1.2,1.6-2.3c-0.4-2.2-2.1-0.9-3.2-1.1c-1.2-0.2-1.7-1.1-1.4-2.2c0.3-1.4,1.4-1.8,2.7-1.8c2.3,0.1,3.8,1.4,4.1,3.6
			c0.4,2.8-0.7,5-3.5,5.8c-2.8,0.9-5.3-0.1-7.2-2.2c-1.5-1.6-2.5-1.6-4,0c-1.9,2.1-4.4,3.1-7.2,2.2c-2.6-0.8-3.7-2.7-3.6-5.3
			c0.1-2.3,1.4-3.7,3.7-4.1c1.4-0.2,2.8,0.1,3.2,1.7c0.4,1.7-0.5,2.6-2.3,2.2c-1.1-0.2-2.1-0.4-2.1,1.1c0,1.1,0.8,1.9,1.8,2.2
			c2.5,1,4.2-0.1,5.3-2.3c2-4,1.1-7.8-1-11.4c-4.4-7.3-17.1-9-23.5-3.3c-3.2,2.9-4.5,9.8-2.4,13.4c1.8,3,4.4,4.5,8,3.3
			c2.7-0.9,4.2-2.6,4-5.6c-0.1-1-0.2-2.1-1.3-2.5c-1-0.4-1.5,0.4-1.9,1.1c-0.9,1.4-2.2,2.1-3.8,1.2c-1-0.5-1.4-1.5-1.3-2.5
			c0.1-1.9,1.4-3,3.1-3.5c2.5-0.8,4.6,0.1,6.2,2.1c2,2.4,2.6,5,0.8,7.8c-2,3.3-5.2,4.9-8.9,4.4c-4.4-0.5-6.9-3.5-8.3-7.7
			C45.8,55.8,46.3,53.5,46.3,50.6z"/>
		<path d="M80,40.7c-0.9-7-5.2-13-5-20.1c0.1-3.6,0.9-7.2,5.1-7.2c4,0,4.8,3.6,4.9,6.9C85.3,27.4,81.2,33.6,80,40.7z"/>
		<path d="M73.9,38.9c-3.4-2.5-6.8-4.4-10.5-5.9c-2.1-0.8-3.7-2.3-3.8-4.7c-0.1-1.7,0.8-2.8,2.3-3.5c2.3-1,4.3,0.1,5.8,1.7
			C71.1,29.8,73.5,33.8,73.9,38.9z"/>
		<path d="M85.6,38.8c0.5-5.8,3.2-10.1,7.7-13.3c2-1.4,4.2-1.5,5.7,0.6c1.7,2.3,0.9,4.5-1.4,5.9C93.8,34.5,89.3,35.8,85.6,38.8z"/>
	</g>
</g>
</svg>
