<?xml version="1.0" encoding="utf-8"?>
<!-- Generator: Adobe Illustrator 21.0.0, SVG Export Plug-In . SVG Version: 6.00 Build 0)  -->
<svg version="1.1" id="Layer_1" xmlns="http://www.w3.org/2000/svg" xmlns:xlink="http://www.w3.org/1999/xlink" x="0px" y="0px"
	 viewBox="0 0 88 70" style="enable-background:new 0 0 88 70;" xml:space="preserve">
<style type="text/css">
	.st0{fill:#333333;}
	.st1{fill:none;stroke:#333333;stroke-miterlimit:10;}
</style>
<path class="st0" d="M6.3,70.1H4.5c-2.1,0-3.8-1.9-3.4-4L12.3,3c0.3-1.6,1.7-2.8,3.4-2.8h1.7c2.1,0,3.8,1.9,3.4,4l-11.1,63
	C9.4,68.9,8,70.1,6.3,70.1z"/>
<path class="st0" d="M50,70.1h-1.8c-2.1,0-3.8-1.9-3.4-4L56,2.8C56.3,1.2,57.7,0,59.4,0h1.7c2.1,0,3.8,1.9,3.4,4L53.4,67.2
	C53.1,68.9,51.7,70.1,50,70.1z"/>
<path class="st1" d="M79,35L79,35c-2.2,0-3.8-1.9-3.4-4l4.8-27.6c0.3-1.7,1.7-2.9,3.4-2.9h0.1c2.1,0,3.8,1.9,3.4,4l-4.9,27.6
	C82.1,33.8,80.7,35,79,35z"/>
<path class="st1" d="M68,35L68,35c-2.1,0-3.8-1.9-3.4-4l4.9-27.6c0.3-1.6,1.7-2.8,3.4-2.8h0c2.1,0,3.8,1.9,3.4,4l-4.9,27.6
	C71.1,33.8,69.7,35,68,35z"/>
<path class="st0" d="M32.5,70.1h-1.8c-2.1,0-3.8-1.9-3.4-4L38.5,3c0.3-1.6,1.7-2.8,3.4-2.8h1.7c2.1,0,3.8,1.9,3.4,4l-11.1,63
	C35.6,68.9,34.2,70.1,32.5,70.1z"/>
<path class="st1" d="M23.6,43.5L23.6,43.5c-2.2,0-3.9-1.9-3.5-4.1L22,29.1c0.3-1.6,1.7-2.8,3.4-2.8h0c2.1,0,3.8,1.9,3.4,4L27,40.6
	C26.7,42.3,25.3,43.5,23.6,43.5z"/>
</svg>
